<?xml version="1.0" encoding="UTF-8" standalone="no"?>
<!DOCTYPE svg PUBLIC "-//W3C//DTD SVG 1.1//EN" "http://www.w3.org/Graphics/SVG/1.1/DTD/svg11.dtd">
<svg width="100%" height="100%" viewBox="0 0 886 178" version="1.1" xmlns="http://www.w3.org/2000/svg" xmlns:xlink="http://www.w3.org/1999/xlink" xml:space="preserve" xmlns:serif="http://www.serif.com/" style="fill-rule:evenodd;clip-rule:evenodd;stroke-linejoin:round;stroke-miterlimit:2;">
    <g transform="matrix(0.572881,0,0,0.572881,26.66,3.71986)">
        <g transform="matrix(1.60406,0,0,1.60406,-1720.46,-2334.79)">
            <g transform="matrix(50,0,0,50,1849.49,1517.91)">
                <path d="M0.031,-0.531L0.243,-0.531L0.243,-0L0.479,-0L0.479,-0.531L0.691,-0.531L0.691,-0.72L0.031,-0.72L0.031,-0.531Z" style="fill:rgb(35,31,32);fill-rule:nonzero;"/>
            </g>
            <g transform="matrix(50,0,0,50,1882.34,1517.91)">
                <path d="M0.272,-0L0.272,-0.244L0.267,-0.356L0.257,-0.462L0.259,-0.462L0.39,-0L0.554,-0L0.685,-0.462L0.687,-0.462L0.675,-0.332L0.672,-0.22L0.672,-0L0.884,-0L0.884,-0.72L0.599,-0.72L0.472,-0.271L0.345,-0.72L0.06,-0.72L0.06,-0L0.272,-0Z" style="fill:rgb(35,31,32);fill-rule:nonzero;"/>
            </g>
        </g>
        <g transform="matrix(3.8826,0,0,4.2666,-2327.78,-7955.62)">
            <g transform="matrix(50,0,0,50,649.061,1923.24)">
                <path d="M0.406,-0.682C0.511,-0.682 0.597,-0.65 0.664,-0.585C0.733,-0.518 0.768,-0.434 0.768,-0.333C0.768,-0.234 0.733,-0.15 0.664,-0.083C0.597,-0.018 0.511,0.015 0.406,0.015C0.301,0.015 0.214,-0.018 0.146,-0.083C0.113,-0.114 0.088,-0.151 0.07,-0.194C0.051,-0.237 0.042,-0.282 0.042,-0.331C0.042,-0.378 0.052,-0.424 0.071,-0.47C0.09,-0.515 0.114,-0.553 0.145,-0.584C0.21,-0.649 0.297,-0.682 0.406,-0.682ZM0.405,-0.54C0.346,-0.54 0.297,-0.521 0.259,-0.483C0.22,-0.445 0.2,-0.395 0.2,-0.332C0.2,-0.272 0.22,-0.222 0.261,-0.182C0.3,-0.145 0.347,-0.127 0.404,-0.127C0.465,-0.127 0.514,-0.146 0.552,-0.184C0.591,-0.221 0.61,-0.271 0.61,-0.333C0.61,-0.394 0.591,-0.444 0.552,-0.483C0.513,-0.521 0.464,-0.54 0.405,-0.54Z" style="fill:rgb(35,31,32);fill-rule:nonzero;"/>
            </g>
            <g transform="matrix(50,0,0,50,685.468,1923.24)">
                <path d="M0.004,-0.667L0.164,-0.667L0.306,-0.225L0.448,-0.667L0.554,-0.667L0.696,-0.225L0.838,-0.667L0.998,-0.667L0.771,-0L0.641,-0L0.501,-0.405L0.361,-0L0.231,-0L0.004,-0.667Z" style="fill:rgb(35,31,32);fill-rule:nonzero;"/>
            </g>
            <g transform="matrix(50,0,0,50,733.068,1923.24)">
                <path d="M0.45,-0.667L0.45,-0.537L0.227,-0.537L0.227,-0.408L0.439,-0.408L0.439,-0.278L0.227,-0.278L0.227,-0.13L0.45,-0.13L0.45,-0L0.073,-0L0.073,-0.667L0.45,-0.667Z" style="fill:rgb(35,31,32);fill-rule:nonzero;"/>
            </g>
            <g transform="matrix(50,0,0,50,755.668,1923.24)">
                <path d="M0.073,-0.667L0.307,-0.667C0.379,-0.667 0.436,-0.648 0.477,-0.609C0.516,-0.572 0.535,-0.522 0.535,-0.46C0.535,-0.403 0.518,-0.358 0.483,-0.324C0.456,-0.299 0.425,-0.282 0.39,-0.273L0.595,-0L0.407,-0L0.227,-0.263L0.227,-0L0.073,-0L0.073,-0.667ZM0.227,-0.547L0.227,-0.364L0.262,-0.364C0.304,-0.364 0.335,-0.374 0.354,-0.393C0.371,-0.41 0.379,-0.431 0.379,-0.458C0.379,-0.487 0.369,-0.51 0.348,-0.526C0.329,-0.54 0.301,-0.547 0.263,-0.547L0.227,-0.547Z" style="fill:rgb(35,31,32);fill-rule:nonzero;"/>
            </g>
        </g>
        <g transform="matrix(3.8826,0,0,4.2666,-1643.34,-7954.92)">
            <g transform="matrix(50,0,0,50,649.061,1923.24)">
                <path d="M0.406,-0.682C0.511,-0.682 0.597,-0.65 0.664,-0.585C0.733,-0.518 0.768,-0.434 0.768,-0.333C0.768,-0.234 0.733,-0.15 0.664,-0.083C0.597,-0.018 0.511,0.015 0.406,0.015C0.301,0.015 0.214,-0.018 0.146,-0.083C0.113,-0.114 0.088,-0.151 0.07,-0.194C0.051,-0.237 0.042,-0.282 0.042,-0.331C0.042,-0.378 0.052,-0.424 0.071,-0.47C0.09,-0.515 0.114,-0.553 0.145,-0.584C0.21,-0.649 0.297,-0.682 0.406,-0.682ZM0.405,-0.54C0.346,-0.54 0.297,-0.521 0.259,-0.483C0.22,-0.445 0.2,-0.395 0.2,-0.332C0.2,-0.272 0.22,-0.222 0.261,-0.182C0.3,-0.145 0.347,-0.127 0.404,-0.127C0.465,-0.127 0.514,-0.146 0.552,-0.184C0.591,-0.221 0.61,-0.271 0.61,-0.333C0.61,-0.394 0.591,-0.444 0.552,-0.483C0.513,-0.521 0.464,-0.54 0.405,-0.54Z" style="fill:rgb(35,31,32);fill-rule:nonzero;"/>
            </g>
            <g transform="matrix(50,0,0,50,687.061,1923.24)">
                <path d="M0.406,-0.682C0.511,-0.682 0.597,-0.65 0.664,-0.585C0.733,-0.518 0.768,-0.434 0.768,-0.333C0.768,-0.234 0.733,-0.15 0.664,-0.083C0.597,-0.018 0.511,0.015 0.406,0.015C0.301,0.015 0.214,-0.018 0.146,-0.083C0.113,-0.114 0.088,-0.151 0.07,-0.194C0.051,-0.237 0.042,-0.282 0.042,-0.331C0.042,-0.378 0.052,-0.424 0.071,-0.47C0.09,-0.515 0.114,-0.553 0.145,-0.584C0.21,-0.649 0.297,-0.682 0.406,-0.682ZM0.405,-0.54C0.346,-0.54 0.297,-0.521 0.259,-0.483C0.22,-0.445 0.2,-0.395 0.2,-0.332C0.2,-0.272 0.22,-0.222 0.261,-0.182C0.3,-0.145 0.347,-0.127 0.404,-0.127C0.465,-0.127 0.514,-0.146 0.552,-0.184C0.591,-0.221 0.61,-0.271 0.61,-0.333C0.61,-0.394 0.591,-0.444 0.552,-0.483C0.513,-0.521 0.464,-0.54 0.405,-0.54Z" style="fill:rgb(35,31,32);fill-rule:nonzero;"/>
            </g>
            <g transform="matrix(50,0,0,50,725.061,1923.24)">
                <path d="M0.073,-0.667L0.307,-0.667C0.379,-0.667 0.436,-0.648 0.477,-0.609C0.516,-0.572 0.535,-0.522 0.535,-0.46C0.535,-0.403 0.518,-0.358 0.483,-0.324C0.456,-0.299 0.425,-0.282 0.39,-0.273L0.595,-0L0.407,-0L0.227,-0.263L0.227,-0L0.073,-0L0.073,-0.667ZM0.227,-0.547L0.227,-0.364L0.262,-0.364C0.304,-0.364 0.335,-0.374 0.354,-0.393C0.371,-0.41 0.379,-0.431 0.379,-0.458C0.379,-0.487 0.369,-0.51 0.348,-0.526C0.329,-0.54 0.301,-0.547 0.263,-0.547L0.227,-0.547Z" style="fill:rgb(35,31,32);fill-rule:nonzero;"/>
            </g>
        </g>
        <g transform="matrix(5.29847,0,0,5.87399,-2731.5,-11046.6)">
            <g transform="matrix(50,0,0,50,649.061,1923.24)">
                <path d="M0.073,-0.667L0.284,-0.667C0.396,-0.667 0.484,-0.636 0.547,-0.575C0.611,-0.513 0.643,-0.433 0.643,-0.336C0.643,-0.239 0.613,-0.161 0.552,-0.1C0.486,-0.033 0.398,-0 0.289,-0L0.073,-0L0.073,-0.667ZM0.227,-0.537L0.227,-0.13L0.268,-0.13C0.333,-0.13 0.384,-0.145 0.42,-0.175C0.463,-0.211 0.485,-0.265 0.485,-0.336C0.485,-0.395 0.467,-0.443 0.43,-0.48C0.392,-0.518 0.338,-0.537 0.268,-0.537L0.227,-0.537Z" style="fill:rgb(35,31,32);fill-rule:nonzero;"/>
            </g>
        </g>
        <g transform="matrix(4.92842,0,0,5.46374,-3133.46,-10257.6)">
            <g transform="matrix(50,0,0,50,649.061,1923.24)">
                <path d="M0.073,-0.667L0.308,-0.667C0.383,-0.667 0.442,-0.649 0.483,-0.612C0.526,-0.574 0.548,-0.52 0.548,-0.45C0.548,-0.385 0.529,-0.332 0.491,-0.293C0.452,-0.254 0.396,-0.234 0.321,-0.234L0.227,-0.234L0.227,-0L0.073,-0L0.073,-0.667ZM0.227,-0.541L0.227,-0.36L0.282,-0.36C0.32,-0.36 0.348,-0.368 0.365,-0.385C0.382,-0.402 0.39,-0.424 0.39,-0.451C0.39,-0.479 0.382,-0.501 0.365,-0.516C0.348,-0.533 0.319,-0.541 0.279,-0.541L0.227,-0.541Z" style="fill:rgb(35,31,32);fill-rule:nonzero;"/>
            </g>
        </g>
    </g>
</svg>
