<?xml version="1.0" encoding="UTF-8" standalone="no"?>
<!-- Created with Inkscape (http://www.inkscape.org/) -->
<svg xmlns:svg="http://www.w3.org/2000/svg" xmlns="http://www.w3.org/2000/svg" version="1.0" width="598.14075" height="138.68698" id="svg5954">
  <defs id="defs5956"/>
  <g transform="translate(146.34454,-402.32016)" id="layer1">
    <path d="M 91.679771,510.81268 C 101.59923,510.81268 109.62963,502.77469 109.62963,492.84765 C 109.62963,482.9206 101.59923,474.89399 91.679771,474.89399 C 81.767899,474.89399 73.71474,482.9206 73.71474,492.84765 C 73.71474,502.77469 81.767899,510.81268 91.679771,510.81268" id="path3345" style="fill:#000000;fill-opacity:1;fill-rule:nonzero;stroke:none"/>
    <path d="M 208.27039,534.30074 C 189.95638,534.30074 173.31142,526.99107 160.06524,507.11422 C 146.82286,487.25633 130.49273,461.06745 121.51781,447.71506 C 112.80841,434.77234 104.64524,428.05822 90.613856,428.05822 C 76.597642,428.05822 68.423098,434.77234 59.717492,447.71506 C 50.731184,461.06745 34.393475,487.25633 21.162472,507.11422 C 7.9162965,526.99107 -8.7362555,534.30074 -27.03889,534.30074 C -45.345317,534.30074 -62.001662,526.99107 -75.232665,507.11422 C -88.486427,487.25633 -104.03134,463.83276 -112.99489,450.49175 C -121.71567,437.54145 -129.88642,430.60731 -143.91401,430.60731 L -143.9216,408.53414 C -123.65024,408.53414 -106.45904,418.22221 -92.264546,439.67707 C -78.10798,461.12814 -67.505729,476.75271 -58.162851,491.16722 C -48.816179,505.57414 -39.901943,512.42483 -27.03889,512.42483 C -14.187216,512.42483 -5.2805665,505.57414 4.0850715,491.16722 C 13.435536,476.75271 24.804033,458.36662 38.964392,436.91176 C 53.162684,415.4607 70.357676,405.76883 90.613856,405.76883 C 110.86624,405.76883 128.0802,415.4607 142.25194,436.91176 C 156.43885,458.36662 167.78838,476.75271 177.14643,491.16722 C 186.48931,505.57414 195.40355,512.64104 208.27039,512.64104 L 208.27039,534.30074" id="path3347" style="fill:#000000;fill-opacity:1;fill-rule:nonzero;stroke:none"/>
    <path d="M 260.55713,401.59242 C 249.70832,412.46779 243.07006,421.95481 243.07006,449.57377 C 243.07006,481.52088 243.07006,534.70662 243.07006,534.70662 L 266.95642,534.70662 L 266.95642,448.40164 C 266.95642,434.86718 267.91991,428.34651 274.79336,421.24547 L 260.55713,401.59242" id="path3349" style="fill:#000000;fill-opacity:1;fill-rule:nonzero;stroke:none"/>
    <path d="M 311.94107,470.0272 C 311.94107,432.60638 342.26464,402.27901 379.69685,402.27901 C 417.1025,402.27901 447.44125,432.60638 447.44125,470.0272 C 447.44125,507.44044 417.11009,537.76781 379.69685,537.76781 C 342.26464,537.76781 311.94107,507.44044 311.94107,470.0272 M 379.69685,515.29255 C 403.96633,515.29255 423.64593,495.02879 423.64593,470.0272 C 423.64593,445.0332 403.95874,424.75426 379.69685,424.75426 C 355.41599,424.75426 335.74397,445.0332 335.74397,470.0272 C 335.74397,495.02879 355.41599,515.29255 379.69685,515.29255" id="path3351" style="fill:#000000;fill-opacity:1;fill-rule:nonzero;stroke:none"/>
  </g>
<script xmlns=""/></svg>